<svg width="1024" height="1024" viewBox="0 0 1024 1024" xmlns="http://www.w3.org/2000/svg">
  <path d="M896 256H128c-70.4 0-128 57.6-128 128v256c0 70.4 57.6 128 128 128h768c70.4 0 128-57.6 128-128V384c0-70.4-57.6-128-128-128zM512 640c-35.2 0-64-28.8-64-64s28.8-64 64-64 64 28.8 64 64-28.8 64-64 64z" fill="#409EFF"/>
  <path d="M384 320h256c17.6 0 32 14.4 32 32v320c0 17.6-14.4 32-32 32H384c-17.6 0-32-14.4-32-32V352c0-17.6 14.4-32 32-32z" fill="#FFFFFF"/>
  <path d="M448 384l128 80-128 80V384z" fill="#409EFF"/>
</svg>
